<?xml version="1.0" encoding="UTF-8" standalone="no"?>
<!-- Generator: Adobe Illustrator 24.0.0, SVG Export Plug-In . SVG Version: 6.00 Build 0)  -->

<svg
   version="1.1"
   id="Layer_1"
   x="0px"
   y="0px"
   viewBox="0 0 200 200"
   xml:space="preserve"
   sodipodi:docname="ADA.svg"
   width="200"
   height="200"
   inkscape:version="1.2.2 (b0a84865, 2022-12-01)"
   xmlns:inkscape="http://www.inkscape.org/namespaces/inkscape"
   xmlns:sodipodi="http://sodipodi.sourceforge.net/DTD/sodipodi-0.dtd"
   xmlns="http://www.w3.org/2000/svg"
   xmlns:svg="http://www.w3.org/2000/svg"><defs
   id="defs69" /><sodipodi:namedview
   id="namedview67"
   pagecolor="#ffffff"
   bordercolor="#000000"
   borderopacity="0.25"
   inkscape:showpageshadow="2"
   inkscape:pageopacity="0.0"
   inkscape:pagecheckerboard="0"
   inkscape:deskcolor="#d1d1d1"
   showgrid="false"
   inkscape:zoom="0.68109668"
   inkscape:cx="38.907839"
   inkscape:cy="173.25"
   inkscape:window-width="1728"
   inkscape:window-height="1080"
   inkscape:window-x="0"
   inkscape:window-y="37"
   inkscape:window-maximized="0"
   inkscape:current-layer="Layer_1" />
<style
   type="text/css"
   id="style2">
	.st0{fill:#FFF;}
</style>
<g
   id="Layer_2_1_"
   style="fill:#ffffff"
   transform="matrix(0.5333109,0,0,0.5333109,0.00420625,7.6038866)">
	<g
   id="Layer_1-2"
   style="fill:#ffffff">
		<path
   class="st0"
   d="m 102.8,172 c -0.8,13.9 9.9,25.8 23.8,26.6 0.5,0 1,0 1.5,0 14,0 25.3,-11.3 25.2,-25.3 0,-14 -11.3,-25.3 -25.3,-25.2 -13.4,0 -24.5,10.5 -25.2,23.9 z"
   id="path4"
   style="fill:#ffffff" />
		<path
   class="st0"
   d="m 8.6,165.5 c -4.5,-0.3 -8.4,3.2 -8.6,7.7 -0.2,4.5 3.2,8.4 7.7,8.6 4.5,0.3 8.3,-3.2 8.6,-7.7 0.3,-4.5 -3.2,-8.3 -7.7,-8.6 0,0 0,0 0,0 z"
   id="path6"
   style="fill:#ffffff" />
		<path
   class="st0"
   d="m 101.2,25.4 c 4,-2 5.6,-7 3.6,-11 -2,-4 -7,-5.6 -11,-3.6 -4,2 -5.6,6.9 -3.6,10.9 2,4.1 6.9,5.8 11,3.7 -0.1,0 0,0 0,0 z"
   id="path8"
   style="fill:#ffffff" />
		<path
   class="st0"
   d="m 126.8,70.1 c 6.2,-3.1 8.7,-10.7 5.6,-16.9 -3.1,-6.2 -10.7,-8.7 -16.9,-5.6 -6.2,3.1 -8.7,10.7 -5.6,16.9 3.1,6.2 10.7,8.7 16.9,5.6 z"
   id="path10"
   style="fill:#ffffff" />
		<path
   class="st0"
   d="m 40.6,100.8 c 4.8,3.1 11.2,1.8 14.4,-3 3.1,-4.8 1.8,-11.2 -3,-14.4 -4.8,-3.1 -11.2,-1.8 -14.4,3 0,0 0,0 0,0 -3.2,4.8 -1.8,11.3 3,14.4 z"
   id="path12"
   style="fill:#ffffff" />
		<path
   class="st0"
   d="m 55.9,161 c -7,-0.4 -12.9,4.9 -13.3,11.9 -0.4,7 4.9,12.9 11.9,13.3 7,0.4 12.9,-4.9 13.3,-11.9 0,0 0,0 0,0 0.4,-6.9 -4.9,-12.9 -11.9,-13.3 z"
   id="path14"
   style="fill:#ffffff" />
		<path
   class="st0"
   d="m 42,245.7 c -5.1,2.6 -7.2,8.8 -4.6,14 2.6,5.1 8.8,7.2 14,4.6 5.1,-2.6 7.2,-8.8 4.6,-14 0,0 0,0 0,0 -2.6,-5.1 -8.9,-7.2 -14,-4.6 0,0 0,0 0,0 z"
   id="path16"
   style="fill:#ffffff" />
		<path
   class="st0"
   d="m 91,134.9 c 6.9,4.5 16.1,2.6 20.5,-4.3 4.5,-6.9 2.6,-16.1 -4.3,-20.5 -6.9,-4.5 -16.1,-2.6 -20.5,4.3 -4.5,6.8 -2.6,16 4.3,20.5 0,0 0,0 0,0 z"
   id="path18"
   style="fill:#ffffff" />
		<path
   class="st0"
   d="m 246.5,69.1 c 5.8,3.8 13.7,2.2 17.5,-3.6 3.8,-5.8 2.2,-13.7 -3.6,-17.5 -5.8,-3.8 -13.7,-2.2 -17.5,3.6 0,0 0,0 0,0 -3.9,5.9 -2.3,13.7 3.6,17.5 0,0 0,0 0,0 z"
   id="path20"
   style="fill:#ffffff" />
		<path
   class="st0"
   d="m 272.3,24.6 c 3.8,2.5 8.8,1.4 11.3,-2.4 2.5,-3.8 1.4,-8.8 -2.4,-11.3 -3.8,-2.5 -8.8,-1.4 -11.3,2.3 -2.4,3.8 -1.3,8.9 2.4,11.4 0,0 0,0 0,0 z"
   id="path22"
   style="fill:#ffffff" />
		<path
   class="st0"
   d="m 248.4,147.9 c -13.9,-0.8 -25.9,9.9 -26.6,23.8 -0.8,13.9 9.9,25.9 23.8,26.6 0.5,0 1,0 1.4,0 13.9,0 25.2,-11.3 25.2,-25.3 0.1,-13.3 -10.4,-24.4 -23.8,-25.1 z"
   id="path24"
   style="fill:#ffffff" />
		<path
   class="st0"
   d="m 135.1,133.1 c 4.3,8.5 13,13.9 22.6,13.9 13.9,0 25.2,-11.3 25.2,-25.3 0,-3.9 -0.9,-7.8 -2.7,-11.4 -6.3,-12.5 -21.5,-17.5 -33.9,-11.2 -12.5,6.4 -17.5,21.6 -11.2,34 z"
   id="path26"
   style="fill:#ffffff" />
		<path
   class="st0"
   d="m 333,100.8 c 5.1,-2.6 7.1,-8.9 4.5,-14 -2.6,-5.1 -8.9,-7.1 -14,-4.5 -5.1,2.6 -7.1,8.8 -4.6,13.9 2.7,5.1 8.9,7.2 14.1,4.6 0,0 0,0 0,0 z"
   id="path28"
   style="fill:#ffffff" />
		<path
   class="st0"
   d="m 269,108.8 c -7.3,3.7 -10.3,12.6 -6.6,19.9 3.7,7.3 12.6,10.3 19.9,6.6 7.3,-3.7 10.3,-12.6 6.6,-19.9 -3.7,-7.3 -12.6,-10.2 -19.9,-6.6 z"
   id="path30"
   style="fill:#ffffff" />
		<path
   class="st0"
   d="m 186.5,20.8 c 5.7,0.3 10.6,-4.1 11,-9.8 0.4,-5.7 -4.1,-10.6 -9.8,-11 -5.7,-0.3 -10.6,4 -11,9.7 -0.3,5.8 4.1,10.7 9.8,11.1 0,0 0,0 0,0 z"
   id="path32"
   style="fill:#ffffff" />
		<path
   class="st0"
   d="m 186.4,86.1 c 8.2,0.5 15.2,-5.8 15.6,-14 0.5,-8.2 -5.8,-15.2 -14,-15.6 -8.2,-0.5 -15.2,5.8 -15.6,14 -0.4,8.2 5.8,15.2 14,15.6 0,0 0,0 0,0 z"
   id="path34"
   style="fill:#ffffff" />
		<path
   class="st0"
   d="m 106,237.7 c 7.3,-3.7 10.3,-12.6 6.6,-19.9 -3.7,-7.3 -12.6,-10.3 -19.9,-6.6 -7.3,3.7 -10.3,12.6 -6.6,19.9 3.7,7.3 12.6,10.3 19.9,6.6 z"
   id="path36"
   style="fill:#ffffff" />
		<path
   class="st0"
   d="m 196,107.8 c -7.6,11.7 -4.4,27.3 7.3,34.9 11.7,7.6 27.3,4.4 34.9,-7.3 7.6,-11.7 4.4,-27.3 -7.3,-34.9 -4.1,-2.7 -8.9,-4.1 -13.8,-4.1 -8.5,0 -16.4,4.3 -21.1,11.4 z"
   id="path38"
   style="fill:#ffffff" />
		<path
   class="st0"
   d="m 239.9,213.4 c -6.3,-12.5 -21.5,-17.5 -33.9,-11.2 -12.5,6.3 -17.5,21.5 -11.2,33.9 6.3,12.5 21.5,17.5 33.9,11.2 0,0 0,0 0,0 12.4,-6.2 17.5,-21.2 11.3,-33.7 0,-0.1 0,-0.1 -0.1,-0.2 z"
   id="path40"
   style="fill:#ffffff" />
		<path
   class="st0"
   d="m 284,211.6 c -6.9,-4.5 -16.1,-2.6 -20.5,4.3 -4.5,6.9 -2.6,16.1 4.3,20.5 6.9,4.5 16.1,2.6 20.5,-4.3 4.5,-6.8 2.6,-16 -4.3,-20.5 0,0 0,0 0,0 z"
   id="path42"
   style="fill:#ffffff" />
		<path
   class="st0"
   d="m 332.4,173.7 c 0.4,-7 -4.9,-12.9 -11.9,-13.3 -7,-0.4 -12.9,4.9 -13.3,11.9 -0.4,7 4.9,12.9 11.9,13.3 0,0 0,0 0,0 6.9,0.4 12.9,-5 13.3,-11.9 z"
   id="path44"
   style="fill:#ffffff" />
		<path
   class="st0"
   d="m 367.3,164.7 c -4.5,-0.3 -8.4,3.2 -8.6,7.7 -0.2,4.5 3.2,8.4 7.7,8.6 4.5,0.3 8.3,-3.2 8.6,-7.7 0.2,-4.5 -3.2,-8.3 -7.7,-8.6 z"
   id="path46"
   style="fill:#ffffff" />
		<path
   class="st0"
   d="m 334.4,245.7 c -4.8,-3.1 -11.2,-1.8 -14.4,3 -3.1,4.8 -1.8,11.2 3,14.4 4.8,3.1 11.2,1.8 14.4,-3 3.2,-4.8 1.8,-11.3 -3,-14.4 0,0 0,0 0,0 z"
   id="path48"
   style="fill:#ffffff" />
		<path
   class="st0"
   d="m 102.6,321.9 c -3.8,-2.5 -8.8,-1.4 -11.3,2.3 -2.5,3.8 -1.4,8.8 2.3,11.3 3.8,2.5 8.8,1.4 11.3,-2.3 0,0 0,0 0,0 2.6,-3.7 1.5,-8.8 -2.3,-11.3 z"
   id="path50"
   style="fill:#ffffff" />
		<path
   class="st0"
   d="m 273.8,321.1 c -4,2 -5.6,7 -3.6,11 2,4 7,5.6 11,3.6 4,-2 5.6,-6.9 3.6,-10.9 -2,-4.1 -6.9,-5.8 -11,-3.7 0.1,0 0,0 0,0 z"
   id="path52"
   style="fill:#ffffff" />
		<path
   class="st0"
   d="m 179,238.7 c 7.6,-11.7 4.4,-27.3 -7.3,-35 -11.7,-7.6 -27.3,-4.4 -35,7.3 -7.7,11.7 -4.4,27.3 7.3,35 4.1,2.7 8.9,4.1 13.8,4.1 8.6,0.1 16.5,-4.2 21.2,-11.4 z"
   id="path54"
   style="fill:#ffffff" />
		<path
   class="st0"
   d="m 128.5,277.4 c -5.8,-3.8 -13.7,-2.2 -17.5,3.6 -3.8,5.8 -2.2,13.7 3.6,17.5 5.8,3.8 13.7,2.2 17.5,-3.6 0,0 0,0 0,0 3.9,-5.8 2.3,-13.7 -3.6,-17.5 z"
   id="path56"
   style="fill:#ffffff" />
		<path
   class="st0"
   d="m 187.4,325.7 c -5.7,-0.3 -10.6,4.1 -11,9.8 -0.4,5.7 4.1,10.6 9.8,11 5.7,0.3 10.6,-4 11,-9.7 0.3,-5.8 -4.1,-10.7 -9.8,-11.1 0,0 0,0 0,0 z"
   id="path58"
   style="fill:#ffffff" />
		<path
   class="st0"
   d="m 187.5,260.4 c -8.2,-0.5 -15.2,5.8 -15.6,14 -0.5,8.2 5.8,15.2 14,15.6 8.2,0.4 15.2,-5.8 15.6,-14 0.5,-8.1 -5.8,-15.2 -14,-15.6 0,0 0,0 0,0 z"
   id="path60"
   style="fill:#ffffff" />
		<path
   class="st0"
   d="m 248.2,276.4 c -6.2,3.2 -8.7,10.8 -5.5,17 3.2,6.2 10.8,8.7 17,5.5 6.2,-3.1 8.7,-10.7 5.6,-16.9 -3.2,-6.2 -10.8,-8.8 -17.1,-5.6 0,0 0,0 0,0 z"
   id="path62"
   style="fill:#ffffff" />
	</g>
</g>
</svg>
