<?xml version="1.0" encoding="UTF-8" standalone="no"?>
<!-- Generator: Adobe Illustrator 25.0.0, SVG Export Plug-In . SVG Version: 6.00 Build 0)  -->

<svg
   version="1.1"
   id="Layer_1"
   x="0px"
   y="0px"
   viewBox="0 0 200 199.99999"
   xml:space="preserve"
   sodipodi:docname="Avalanche Coin (AVAX).svg"
   width="200"
   height="200"
   inkscape:version="1.2.2 (b0a84865, 2022-12-01)"
   xmlns:inkscape="http://www.inkscape.org/namespaces/inkscape"
   xmlns:sodipodi="http://sodipodi.sourceforge.net/DTD/sodipodi-0.dtd"
   xmlns="http://www.w3.org/2000/svg"
   xmlns:svg="http://www.w3.org/2000/svg"><defs
   id="defs1248" /><sodipodi:namedview
   id="namedview1246"
   pagecolor="#ffffff"
   bordercolor="#000000"
   borderopacity="0.25"
   inkscape:showpageshadow="2"
   inkscape:pageopacity="0.0"
   inkscape:pagecheckerboard="0"
   inkscape:deskcolor="#d1d1d1"
   showgrid="false"
   inkscape:zoom="0.71797989"
   inkscape:cx="88.442588"
   inkscape:cy="164.35001"
   inkscape:window-width="1728"
   inkscape:window-height="1080"
   inkscape:window-x="0"
   inkscape:window-y="37"
   inkscape:window-maximized="0"
   inkscape:current-layer="g1243" />
<style
   type="text/css"
   id="style1237">
	.st0{fill-rule:evenodd;clip-rule:evenodd;fill:#E84142;}
	.st1{fill:#FFFFFF;}
</style>
<g
   id="g1243">
	
	<path
   class="st1"
   d="m 149.79001,120.22719 c 4.89009,-8.44652 12.78091,-8.44652 17.67101,0 l 30.45192,53.45758 c 4.89009,8.44652 0.88911,15.3371 -8.89107,15.3371 h -61.34841 c -9.66904,0 -13.67002,-6.89058 -8.89107,-15.3371 z M 90.88665,17.31302 c 4.89009,-8.44652 12.66978,-8.44652 17.55987,0 l 6.77944,12.225225 16.00393,28.118019 c 3.88985,8.001966 3.88985,17.448731 0,25.450696 l -53.67985,93.02285 c -4.89009,7.55741 -13.00319,12.33637 -22.00541,12.89206 h -44.5665 c -9.7801797,0 -13.7811597,-6.77944 -8.8910697,-15.3371 z"
   id="path1241"
   style="stroke-width:1.11138" />
</g>
</svg>
