<?xml version="1.0" encoding="UTF-8" standalone="no"?>
<!-- Generator: Adobe Illustrator 26.0.1, SVG Export Plug-In . SVG Version: 6.00 Build 0)  -->

<svg
   version="1.1"
   id="Layer_1"
   x="0px"
   y="0px"
   viewBox="0 0 200 200"
   xml:space="preserve"
   sodipodi:docname="BNB.svg"
   width="200"
   height="200"
   inkscape:version="1.2.2 (b0a84865, 2022-12-01)"
   xmlns:inkscape="http://www.inkscape.org/namespaces/inkscape"
   xmlns:sodipodi="http://sodipodi.sourceforge.net/DTD/sodipodi-0.dtd"
   xmlns="http://www.w3.org/2000/svg"
   xmlns:svg="http://www.w3.org/2000/svg"><defs
   id="defs858" /><sodipodi:namedview
   id="namedview856"
   pagecolor="#ffffff"
   bordercolor="#000000"
   borderopacity="0.25"
   inkscape:showpageshadow="2"
   inkscape:pageopacity="0.0"
   inkscape:pagecheckerboard="0"
   inkscape:deskcolor="#d1d1d1"
   showgrid="false"
   inkscape:zoom="0.094551282"
   inkscape:cx="163.9322"
   inkscape:cy="1248"
   inkscape:window-width="1728"
   inkscape:window-height="1080"
   inkscape:window-x="0"
   inkscape:window-y="37"
   inkscape:window-maximized="0"
   inkscape:current-layer="g853" />
<g
   id="g853">
	
	
	
	
	
<g
   id="g1123"
   style="fill:#ffffff"
   transform="matrix(0.11721956,0,0,0.11721956,-72.324674,-69.845179)"><path
     style="fill:#ffffff"
     d="m 908.00169,1448.9492 0.9,330 280.40001,165 v 193.2 l -444.50001,-260.7 v -524 z m 0,-330 v 192.2999 l -163.3,-96.5999 v -192.3001 l 163.3,-96.59995 164.10001,96.59995 z m 398.40001,-96.6001 163.3,-96.59995 164.1,96.59995 -164.1,96.6001 z"
     id="path845" /><path
     style="fill:#ffffff"
     d="m 1026.0017,1710.5491 v -193.2 l 163.3,96.6 v 192.3 z m 280.4,302.6 163.3,96.6 164.1,-96.6 v 192.3001 l -164.1,96.5999 -163.3,-96.5999 z m 561.6,-990.8 163.3,-96.59995 164.1,96.59995 v 192.3 l -164.1,96.6 v -192.2999 z m 163.3,756.6001 0.9,-330 163.3,-96.6 v 524 l -444.5,260.7 v -193.2 z"
     id="path847" /><polygon
     style="fill:#ffffff"
     points="1692.1,1316.4 1692.1,1509.6 1528.8,1605.3 1528.8,1413 "
     id="polygon849"
     transform="translate(222.10169,200.94915)" /><path
     style="fill:#ffffff"
     d="m 1914.2017,1187.3492 0.9,193.1999 -281.2,165 v 330.8 l -163.3,95.7 -163.3,-95.7 v -330.8 l -281.2,-165 v -193.1999 l 164,-96.6001 279.5,165.8 281.2,-165.8 164.1,96.6001 z m -888.2,-329.90005 443.7,-261.6 444.5,261.6 -163.3,96.6 -281.2,-165.8 -280.4,165.8 z"
     id="path851" /></g></g>
</svg>
