<?xml version="1.0" encoding="UTF-8" standalone="no"?>
<svg
   id="Layer_1"
   data-name="Layer 1"
   viewBox="0 0 200 200"
   version="1.1"
   sodipodi:docname="litecoin-ltc-icon.svg"
   width="200"
   height="200"
   inkscape:version="1.2.2 (b0a84865, 2022-12-01)"
   xmlns:inkscape="http://www.inkscape.org/namespaces/inkscape"
   xmlns:sodipodi="http://sodipodi.sourceforge.net/DTD/sodipodi-0.dtd"
   xmlns="http://www.w3.org/2000/svg"
   xmlns:svg="http://www.w3.org/2000/svg"
   xmlns:rdf="http://www.w3.org/1999/02/22-rdf-syntax-ns#"
   xmlns:cc="http://creativecommons.org/ns#"
   xmlns:dc="http://purl.org/dc/elements/1.1/">
  <sodipodi:namedview
     id="namedview694"
     pagecolor="#ffffff"
     bordercolor="#000000"
     borderopacity="0.25"
     inkscape:showpageshadow="2"
     inkscape:pageopacity="0.0"
     inkscape:pagecheckerboard="0"
     inkscape:deskcolor="#d1d1d1"
     showgrid="false"
     inkscape:zoom="0.46369067"
     inkscape:cx="35.584067"
     inkscape:cy="254.48"
     inkscape:window-width="1728"
     inkscape:window-height="1080"
     inkscape:window-x="0"
     inkscape:window-y="37"
     inkscape:window-maximized="0"
     inkscape:current-layer="Layer_1" />
  <defs
     id="defs685">
    <style
       id="style683">.cls-1{fill:#fff;}.cls-2{fill:#345d9d;}</style>
  </defs>
  <title
     id="title687">litecoin-ltc</title>
  <path
     id="circle689"
     style="fill:#ffffff;stroke-width:0.442866"
     class="cls-1"
     d="M 46.304675,7.945074 A 100.50594,100.50158 0 0 0 46.048587,8.10937 c 0.08516,-0.05505 0.170756,-0.109498 0.256088,-0.164296 z m -11.331074,8.453953 a 100.50594,100.50158 0 0 0 -0.536085,0.46435 c 0.178029,-0.155564 0.356952,-0.310026 0.536085,-0.46435 z m 63.344479,6.568782 c -1.687154,-0.05203 -3.192659,1.05231 -3.649237,2.677342 l -20.200011,68.622805 -16.057883,4.8695 -3.653095,11.193014 16.061742,-4.86566 -14.355522,48.91183 H 142.1236 c 1.69255,0.0696 3.20779,-1.04188 3.64923,-2.67734 l 4.86565,-16.81226 v -0.92407 c -0.0557,-1.55838 -1.36424,-2.77683 -2.92263,-2.72131 H 119.73142 91.746983 l 10.465627,-35.282914 16.31011,-4.6088 3.40087,-11.68203 -16.06252,4.86951 17.03364,-57.916522 v -0.927929 c -0.0536,-1.55834 -1.36042,-2.778426 -2.91877,-2.725166 z m -73.484594,3.498826 a 100.50594,100.50158 0 0 0 -0.528372,0.610135 c 0.175445,-0.204011 0.351322,-0.407553 0.528372,-0.610135 z m -8.711582,11.541649 a 100.50594,100.50158 0 0 0 -0.304682,0.475921 c 0.101538,-0.15869 0.202278,-0.317835 0.304682,-0.475921 z m -6.97991,12.699441 a 100.50594,100.50158 0 0 0 -0.1079886,0.238348 c 0.036168,-0.07936 0.071621,-0.159097 0.1079886,-0.238348 z M 4.0973907,64.182373 a 100.50594,100.50158 0 0 0 -0.04628,0.16275 c 0.015803,-0.05409 0.030389,-0.108696 0.04628,-0.16275 z m -3.045274,13.950563 a 100.50594,100.50158 0 0 0 -0.043967,0.34325 c 0.016004,-0.11398 0.027581,-0.22939 0.043967,-0.34325 z M 0.00694273,92.466086 A 100.50594,100.50158 0 0 0 6.25e-7,92.566366 100.50594,100.50158 0 0 0 0.00694273,92.666636 c -3.303e-5,-0.0336 -0.00231403,-0.0666 -0.00231403,-0.10027 0,-0.0336 0.002281,-0.0667 0.00231403,-0.10028 z M 1.0081499,106.65577 a 100.50594,100.50158 0 0 0 0.043967,0.34325 c -0.016386,-0.11385 -0.027963,-0.22927 -0.043967,-0.34325 z M 200,106.72134 c -0.0111,0.0789 -0.0195,0.15875 -0.0309,0.23757 A 100.50594,100.50158 0 0 0 200,106.72134 Z M 4.0487959,120.77912 a 100.50594,100.50158 0 0 0 0.050909,0.17818 c -0.017413,-0.0592 -0.033602,-0.11893 -0.050909,-0.17818 z m 192.8974441,0.0764 c -0.004,0.0148 -0.008,0.0299 -0.0123,0.0447 a 100.50594,100.50158 0 0 0 0.0123,-0.0447 z M 9.0278346,134.16892 a 100.50594,100.50158 0 0 0 0.1218728,0.27074 c -0.041282,-0.0899 -0.080848,-0.1807 -0.1218728,-0.27074 z m 182.9270254,0.0802 c -0.0188,0.0411 -0.0375,0.0823 -0.0563,0.12341 a 100.50594,100.50158 0 0 0 0.0563,-0.12341 z M 15.800253,146.61767 a 100.50594,100.50158 0 0 0 0.342477,0.53454 c -0.115109,-0.17752 -0.22846,-0.35625 -0.342477,-0.53454 z m 169.378337,0.0625 c -0.0893,0.13947 -0.17843,0.27907 -0.26843,0.41807 a 100.50594,100.50158 0 0 0 0.26843,-0.41807 z M 24.269632,158.00736 a 100.50594,100.50158 0 0 0 0.606278,0.70039 c -0.203374,-0.23236 -0.405017,-0.46615 -0.606278,-0.70039 z m 152.427238,0.0609 c -0.16933,0.19677 -0.33904,0.39311 -0.50986,0.58854 a 100.50594,100.50158 0 0 0 0.50986,-0.58854 z M 34.374265,168.20533 a 100.50594,100.50158 0 0 0 0.671843,0.5816 c -0.224624,-0.19311 -0.448951,-0.38656 -0.671843,-0.5816 z m 132.224905,0.0393 c -0.19541,0.1708 -0.39178,0.34056 -0.58853,0.50986 a 100.50594,100.50158 0 0 0 0.58853,-0.50986 z m -120.657028,8.69924 a 100.50594,100.50158 0 0 0 0.483634,0.31008 c -0.161308,-0.10324 -0.322957,-0.20595 -0.483634,-0.31008 z m 109.095328,0.0247 c -0.13714,0.0888 -0.27507,0.17644 -0.41267,0.26457 a 100.50594,100.50158 0 0 0 0.41267,-0.26457 z m -96.363491,6.97297 a 100.50594,100.50158 0 0 0 0.175096,0.0794 c -0.05829,-0.0266 -0.116863,-0.0527 -0.175096,-0.0794 z m 83.637051,0.0147 c -0.0388,0.0178 -0.0776,0.0355 -0.11647,0.0532 a 100.50594,100.50158 0 0 0 0.11647,-0.0532 z m -70.146981,5.03071 a 100.50594,100.50158 0 0 0 0.06171,0.0178 c -0.02052,-0.006 -0.04119,-0.0117 -0.06171,-0.0178 z m 56.673111,0.005 c -0.012,0.004 -0.0242,0.007 -0.0362,0.01 a 100.50594,100.50158 0 0 0 0.0362,-0.01 z m -42.719458,3.03448 a 100.50594,100.50158 0 0 0 0.222918,0.0285 c -0.07401,-0.0104 -0.148963,-0.0179 -0.222918,-0.0285 z m 28.775838,0 c -0.0732,0.0105 -0.14737,0.0182 -0.22061,0.0285 a 100.50594,100.50158 0 0 0 0.22061,-0.0285 z" />
  <metadata
     id="metadata1013">
    <rdf:RDF>
      <cc:Work
         rdf:about="">
        <dc:title>litecoin-ltc</dc:title>
      </cc:Work>
    </rdf:RDF>
  </metadata>
</svg>
