<?xml version="1.0" encoding="UTF-8" standalone="no"?>
<svg
   id="Calque_1"
   data-name="Calque 1"
   viewBox="0 0 200 200"
   version="1.1"
   sodipodi:docname="TRX.svg"
   width="200"
   height="200"
   inkscape:version="1.2.2 (b0a84865, 2022-12-01)"
   xmlns:inkscape="http://www.inkscape.org/namespaces/inkscape"
   xmlns:sodipodi="http://sodipodi.sourceforge.net/DTD/sodipodi-0.dtd"
   xmlns="http://www.w3.org/2000/svg"
   xmlns:svg="http://www.w3.org/2000/svg"
   xmlns:rdf="http://www.w3.org/1999/02/22-rdf-syntax-ns#"
   xmlns:cc="http://creativecommons.org/ns#"
   xmlns:dc="http://purl.org/dc/elements/1.1/">
  <sodipodi:namedview
     id="namedview401"
     pagecolor="#ffffff"
     bordercolor="#000000"
     borderopacity="0.25"
     inkscape:showpageshadow="2"
     inkscape:pageopacity="0.0"
     inkscape:pagecheckerboard="0"
     inkscape:deskcolor="#d1d1d1"
     showgrid="false"
     inkscape:zoom="1.3037281"
     inkscape:cx="63.280064"
     inkscape:cy="154.17325"
     inkscape:window-width="1728"
     inkscape:window-height="1080"
     inkscape:window-x="0"
     inkscape:window-y="37"
     inkscape:window-maximized="0"
     inkscape:current-layer="Calque_1" />
  <defs
     id="defs393">
    <style
       id="style391">.cls-1{fill:#ff060a;}</style>
  </defs>
  <title
     id="title395">tron</title>
  <g
     id="tron"
     transform="matrix(3.1249585,0,0,3.1249585,0.1148788,0.00265496)"
     style="fill:#ffffff">
    <path
       class="cls-1"
       d="m 61.55,19.28 c -3,-2.77 -7.15,-7 -10.53,-10 L 50.82,9.14 A 3.82,3.82 0 0 0 49.71,8.52 v 0 C 41.56,7 3.63,-0.09 2.89,0 A 1.4,1.4 0 0 0 2.31,0.22 L 2.12,0.37 A 2.23,2.23 0 0 0 1.6,1.21 L 1.55,1.34 V 2.05 2.16 C 5.82,14.05 22.68,53 26,62.14 c 0.2,0.62 0.58,1.8 1.29,1.86 h 0.16 c 0.38,0 2,-2.14 2,-2.14 0,0 28.96,-35.12 31.89,-38.86 a 9.46,9.46 0 0 0 1,-1.48 2.41,2.41 0 0 0 -0.79,-2.24 z M 36.88,23.37 49.24,13.12 56.49,19.8 Z M 32.08,22.7 10.8,5.26 45.23,11.61 Z m 1.92,4.57 21.78,-3.51 -24.9,30 z M 7.91,7 30.3,26 27.06,53.78 Z"
       id="path397"
       style="fill:#ffffff" />
  </g>
  <metadata
     id="metadata520">
    <rdf:RDF>
      <cc:Work
         rdf:about="">
        <dc:title>tron</dc:title>
      </cc:Work>
    </rdf:RDF>
  </metadata>
</svg>
